<svg width="45" height="44" viewBox="0 0 45 44" fill="none" xmlns="http://www.w3.org/2000/svg">
<path d="M44.3408 14.4321H38.2061V12.428C38.2061 9.12326 35.4564 6.43471 32.0766 6.43471C29.6902 6.43471 27.6179 7.77473 26.6055 9.72551C25.5933 7.77456 23.5212 6.43445 21.135 6.43445C17.755 6.43445 15.0052 9.12317 15.0052 12.428V14.4321H9.59854C9.2344 14.4321 8.93936 14.7205 8.93936 15.0766C8.93936 15.4326 9.2344 15.7211 9.59854 15.7211H15.0052V27.1567C14.5861 27.3629 14.1931 27.6368 13.8436 27.9785C12.5953 29.1989 10.5642 29.1992 9.3157 27.9784C7.57169 26.2733 4.66717 26.2735 2.92324 27.9785C2.47702 28.4149 1.92217 28.7065 1.31836 28.8294V15.7211H6.72539C7.08952 15.7211 7.38457 15.4326 7.38457 15.0766C7.38457 14.7205 7.08952 14.4321 6.72539 14.4321H0.65918C0.295049 14.4321 0 14.7205 0 15.0766V29.5399C0.0700488 29.956 0.289863 30.1709 0.659355 30.1845C1.86662 30.1845 3.00173 29.7247 3.85559 28.89C5.1039 27.6692 7.13514 27.6694 8.38354 28.8901C10.1275 30.5951 13.0321 30.595 14.7759 28.89C15.9513 27.7406 18.1252 27.7376 19.3039 28.89C21.0452 30.5927 23.9449 30.5956 25.6896 28.8964C26.9411 27.7198 28.9695 27.6631 30.2242 28.8899C31.968 30.595 34.8726 30.595 36.6166 28.89C37.8649 27.6692 39.8961 27.6694 41.1445 28.8901C41.9983 29.7248 43.1334 30.1845 44.3406 30.1845C44.7101 30.1709 44.9299 29.956 45 29.5399V15.0766C45 14.7205 44.705 14.4321 44.3408 14.4321ZM19.0746 15.7211L25.9462 15.7315V17.1016H19.0746V15.7211ZM19.0746 18.3907H25.9462V19.771H19.0746V18.3907ZM23.1954 14.4321H19.0746V12.428C19.0746 11.3171 19.9989 10.4134 21.1349 10.4134C22.271 10.4134 23.1953 11.3172 23.1953 12.428L23.1954 14.4321ZM19.0746 21.0601H25.9462V22.4509H19.0746V21.0601ZM19.0746 23.7399H25.9462V25.1203H19.0746V23.7399ZM16.3236 26.7415V12.428C16.3236 9.83388 18.482 7.72351 21.135 7.72351C23.776 7.72351 25.9269 9.8148 25.9463 12.3928C25.9462 12.4045 25.9462 12.4162 25.9462 12.428V14.4321H24.5137V12.428C24.5137 10.6064 22.998 9.12429 21.135 9.12429C19.272 9.12429 17.7563 10.6064 17.7563 12.428V26.7416C17.2819 26.6677 16.7978 26.6677 16.3236 26.7415ZM24.7706 27.9721C23.5395 29.1295 21.4657 29.1811 20.236 27.9784C19.8866 27.6368 19.4937 27.3629 19.0746 27.1567V26.4093H25.9462V27.1444C25.5169 27.3537 25.1202 27.6315 24.7706 27.9721ZM38.8804 26.6839C37.6732 26.6839 36.5381 27.1437 35.6844 27.9784C34.4358 29.199 32.4047 29.1989 31.1563 27.9784C30.8163 27.6459 30.4316 27.3729 30.0155 27.1648V21.8303C30.0155 21.4743 29.7205 21.1858 29.3563 21.1858C28.9922 21.1858 28.6972 21.4743 28.6972 21.8303V26.742C28.2198 26.6666 27.7422 26.6646 27.2645 26.7356L27.2648 12.4279C27.2648 12.4161 27.2648 12.4044 27.2647 12.3927C27.2842 9.81497 29.4353 7.72368 32.0766 7.72368C34.7295 7.72368 36.8877 9.83405 36.8877 12.4279V14.432H35.4551V12.4279C35.4551 10.6064 33.9395 9.12446 32.0766 9.12446C30.2132 9.12446 28.6972 10.6064 28.6972 12.4279V19.021C28.6972 19.3771 28.9922 19.6656 29.3563 19.6656C29.7205 19.6656 30.0155 19.3771 30.0155 19.021V15.7211H43.6816V28.8293C43.0778 28.7064 42.523 28.4148 42.0767 27.9783C41.2229 27.1437 40.0878 26.6839 38.8804 26.6839ZM30.0155 14.4321V12.428C30.0155 11.3172 30.9401 10.4136 32.0766 10.4136C33.2125 10.4136 34.1367 11.3173 34.1367 12.428V14.4321H30.0155Z" fill="black"/>
<path d="M44.3405 32.6705C43.4853 32.6705 42.6813 32.3449 42.0764 31.7535C40.3141 30.0304 37.4465 30.0305 35.6841 31.7536C34.4359 32.9742 32.4047 32.9743 31.1562 31.7537C29.4295 30.0654 26.5004 30.0621 24.7704 31.7472C23.5393 32.9047 21.4656 32.9562 20.2358 31.7535C18.4735 30.0304 15.6058 30.0304 13.8434 31.7537C12.6082 32.9614 10.5506 32.9614 9.31544 31.7535C7.55314 30.0304 4.68545 30.0305 2.92307 31.7536C2.31838 32.3449 1.51444 32.6705 0.65918 32.6705C0.295049 32.6705 0 32.959 0 33.3151C0 33.6711 0.295049 33.9596 0.65918 33.9596C1.86645 33.9596 3.00155 33.4998 3.85532 32.6651C5.10381 31.4445 7.13496 31.4448 8.38336 32.6651C10.1272 34.3702 13.0319 34.3703 14.7756 32.6651C16.0242 31.4445 18.0554 31.4448 19.3037 32.6651C21.008 34.3315 23.9936 34.3298 25.6961 32.665C26.9314 31.4573 28.9889 31.4574 30.224 32.6652C31.9678 34.3701 34.8725 34.3703 36.6163 32.6651C37.8648 31.4446 39.8959 31.4447 41.1443 32.6652C41.9981 33.4999 43.1332 33.9596 44.3405 33.9596C44.7046 33.9596 44.9996 33.6711 44.9996 33.3151C44.9996 32.959 44.7046 32.6705 44.3405 32.6705Z" fill="black"/>
<path d="M44.3406 36.2766C43.4855 36.2766 42.6814 35.9509 42.0766 35.3596C40.3142 33.6365 37.4467 33.6365 35.6842 35.3596C34.436 36.5804 32.4048 36.5803 31.1563 35.3597C29.4427 33.684 26.4773 33.6843 24.7638 35.3597C24.4581 35.6587 24.1018 35.8901 23.7051 36.0475C23.3677 36.1813 23.2052 36.5572 23.3419 36.887C23.4788 37.217 23.8632 37.3758 24.2005 37.2421C24.7589 37.0207 25.2599 36.6961 25.6895 36.2776C25.6918 36.2754 25.6941 36.2732 25.6963 36.2711C26.9445 35.0506 28.9756 35.0506 30.2241 36.2711C31.968 37.9762 34.8726 37.9762 36.6165 36.2712C37.8648 35.0507 39.896 35.0507 41.1444 36.2712C41.9982 37.1059 43.1333 37.5656 44.3406 37.5656C44.7047 37.5656 44.9998 37.2771 44.9998 36.9211C44.9998 36.5651 44.7047 36.2766 44.3406 36.2766Z" fill="black"/>
<path d="M21.317 36.0562C20.9113 35.8988 20.5475 35.6645 20.2358 35.3598C18.4734 33.6366 15.6058 33.6365 13.8434 35.3598C12.6083 36.5675 10.5507 36.5676 9.31553 35.3598C7.55314 33.6367 4.68554 33.6365 2.92307 35.3598C2.31838 35.9511 1.51444 36.2767 0.65918 36.2767C0.295049 36.2767 0 36.5652 0 36.9212C0 37.2773 0.295049 37.5658 0.65918 37.5658C1.86645 37.5658 3.00155 37.106 3.85541 36.2714C5.10372 35.0509 7.13496 35.0507 8.38336 36.2713C10.1272 37.9764 13.0318 37.9764 14.7757 36.2714C16.024 35.0509 18.0553 35.0507 19.3037 36.2713C19.7431 36.7011 20.257 37.0319 20.8309 37.2545C21.1691 37.3856 21.5524 37.224 21.6867 36.893C21.8209 36.5621 21.6555 36.1874 21.317 36.0562Z" fill="black"/>
</svg>
