<svg width="45" height="44" viewBox="0 0 45 44" fill="none" xmlns="http://www.w3.org/2000/svg">
<path d="M41.6173 25.4301C41.2541 25.4176 40.9507 25.7018 40.9413 26.0577C40.8341 30.0943 37.3852 33.3782 33.2533 33.3782H32.0497C32.1286 32.916 32.1782 32.4431 32.2298 31.9774H33.2533C36.7039 31.9774 39.5111 29.2329 39.5111 25.8596V23.351C39.5111 21.5205 37.988 20.0313 36.1158 20.0313H33.6669L33.8353 18.6305H36.1158C38.7367 18.6305 40.902 20.7145 40.9429 23.276C40.9484 23.6285 41.2425 23.9105 41.6018 23.9105C41.6052 23.9105 41.6087 23.9105 41.6123 23.9104C41.9763 23.9049 42.2667 23.6118 42.2611 23.2559C42.2091 19.9947 39.4523 17.3414 36.1158 17.3414L21.1983 17.3517C20.8341 17.3517 20.5391 17.6402 20.5391 17.9963C20.5391 18.3523 20.8341 18.6408 21.1983 18.6408H32.5068L32.3408 20.0209H6.85468L6.77523 19.3604C6.77312 18.9289 6.99144 18.689 7.4301 18.6408H18.3249C18.6891 18.6408 18.9841 18.3523 18.9841 17.9963C18.9841 17.6402 18.6891 17.3517 18.3249 17.3517H7.43019C6.11429 17.4967 5.45959 18.2164 5.46601 19.511L7.0788 32.9173C7.44882 35.9895 9.28855 38.5778 11.8612 40.0417H3.38098C2.80907 40.1498 2.61914 40.4725 2.81118 41.0103L3.61064 42.3544C4.21418 43.3695 5.33505 44 6.53581 44H26.2993C26.6635 44 26.9585 43.7115 26.9585 43.3555C26.9585 42.9994 26.6635 42.711 26.2993 42.711H6.53581C5.62105 42.711 4.88909 42.1047 4.5269 41.3308H37.8815C37.5297 42.0842 36.8191 42.711 35.9162 42.711H29.1725C28.8083 42.711 28.5133 42.9994 28.5133 43.3555C28.5133 43.7115 28.8083 44 29.1725 44H35.9162C37.2843 44 38.5095 43.2028 39.0376 41.9689L39.4801 40.9352C39.6039 40.425 39.4012 40.1272 38.8721 40.0418H27.3349C29.4022 38.8655 30.996 36.9633 31.7341 34.6673H33.2532C35.6145 34.6673 37.8478 33.7771 39.5419 32.1608C41.233 30.5474 42.198 28.3917 42.259 26.0911C42.2685 25.7353 41.9811 25.4393 41.6173 25.4301ZM36.1158 21.3203C37.2609 21.3203 38.1926 22.2314 38.1926 23.351V25.8596C38.1926 28.5222 35.9768 30.6883 33.2532 30.6883H32.3847L33.5117 21.3203H36.1158ZM32.1856 21.3099L32.0196 22.6903H7.17583L7.00981 21.3099H32.1856ZM22.4401 40.0418H16.7554C12.4848 40.0418 8.88768 36.9142 8.38802 32.7667L7.33087 23.9793H31.8644C31.8644 23.9793 30.6964 33.4839 30.607 33.8295C29.4555 37.4107 26.4132 40.0418 22.4401 40.0418Z" fill="black"/>
<path d="M19.7819 26.5157C19.7686 26.5153 19.7553 26.5153 19.7421 26.5157C17.1298 26.5286 15.0078 29.0747 15.0078 32.2024C15.0078 35.3313 17.1311 37.878 19.7447 37.8893C19.7503 37.8894 19.7559 37.8895 19.7616 37.8895C19.7671 37.8895 19.7726 37.8894 19.7781 37.8893C22.3922 37.8789 24.5163 35.3319 24.5163 32.2024C24.5163 29.0746 22.3943 26.5285 19.7819 26.5157ZM16.3262 32.2024C16.3262 30.3226 17.2524 28.7145 18.5514 28.0865L18.5408 28.1073C17.7634 29.6274 18.0668 31.4563 19.296 32.6581C20.4229 33.7599 20.1784 35.4044 19.3694 36.5716C17.659 36.3214 16.3262 34.4574 16.3262 32.2024ZM20.9728 36.3183L20.9834 36.2975C21.7609 34.7773 21.4573 32.9484 20.2282 31.7465C19.1013 30.6448 19.3458 29.0002 20.1548 27.8331C21.8651 28.0834 23.198 29.9474 23.198 32.2023C23.198 34.0822 22.2718 35.6903 20.9728 36.3183Z" fill="black"/>
<path d="M25.2218 5.29315C26.3637 5.29315 27.2926 6.20151 27.2926 7.31801C27.2926 8.43451 26.3637 9.34287 25.2218 9.34287H22.4918C20.6229 9.34287 19.1025 10.8295 19.1025 12.6567V15.3265C19.1025 15.6826 19.3976 15.9711 19.7617 15.9711C20.1258 15.9711 20.4209 15.6826 20.4209 15.3265V12.6567C20.4209 11.5402 21.3499 10.6319 22.4918 10.6319H25.2218C27.0907 10.6319 28.611 9.1453 28.611 7.31801C28.611 5.49072 27.0906 4.00409 25.2218 4.00409C24.08 4.00409 23.151 3.09573 23.151 1.97923V0.644531C23.151 0.288492 22.8559 0 22.4918 0C22.1276 0 21.8326 0.288492 21.8326 0.644531V1.97914C21.8326 3.80652 23.353 5.29315 25.2218 5.29315Z" fill="black"/>
<path d="M17.0317 15.9711C17.3959 15.9711 17.6909 15.6826 17.6909 15.3266V9.9877C17.6909 9.60709 18.0076 9.29754 18.3967 9.29754C19.5128 9.29754 20.4209 8.40963 20.4209 7.31831V3.30237C20.4209 2.94633 20.1258 2.65784 19.7617 2.65784C19.3976 2.65784 19.1025 2.94633 19.1025 3.30237V7.31831C19.1025 7.69893 18.7859 8.00848 18.3967 8.00848C17.2806 8.00848 16.3726 8.89638 16.3726 9.9877V15.3266C16.3726 15.6826 16.6677 15.9711 17.0317 15.9711Z" fill="black"/>
<path d="M25.2218 12.0127C23.3529 12.0127 21.8325 13.4993 21.8325 15.3266C21.8325 15.6827 22.1276 15.9711 22.4917 15.9711C22.8558 15.9711 23.1509 15.6827 23.1509 15.3266C23.1509 14.2101 24.0799 13.3018 25.2218 13.3018H27.9518C29.8206 13.3018 31.341 11.8151 31.341 9.98784V7.31836C31.341 6.96232 31.0459 6.67383 30.6818 6.67383C30.3177 6.67383 30.0226 6.96232 30.0226 7.31836V9.98775C30.0226 11.1043 29.0937 12.0126 27.9518 12.0126L25.2218 12.0127Z" fill="black"/>
</svg>
