<svg width="44" height="44" viewBox="0 0 44 44" fill="none" xmlns="http://www.w3.org/2000/svg">
<path d="M43.3543 21.9028C43.7109 21.9028 44 21.6137 44 21.2571V16.6476C44 16.291 43.7109 16.0019 43.3543 16.0019H39.3204V14.5558C40.843 14.2545 41.9946 12.9086 41.9946 11.2988C41.9946 9.70148 39.6716 6.25745 39.2059 5.58319C38.8517 5.21159 38.4975 5.21159 38.1434 5.58319C37.6777 6.25737 35.3547 9.7014 35.3547 11.2988C35.3547 12.9086 36.5063 14.2544 38.029 14.5557V16.0018H33.9951C33.6384 16.0018 33.3493 16.2909 33.3493 16.6476V24.0637C33.1481 24.0432 32.9438 24.0327 32.7372 24.0327H29.4406C31.6826 22.6641 31.5081 15.8403 31.5473 12.5684C31.442 12.0001 31.1169 11.8125 30.5722 12.0053C30.4332 12.0877 27.4126 13.8844 25.0126 15.6745C23.9852 13.4714 22.8274 11.3903 22.603 10.9908C22.2276 10.5513 21.8524 10.5513 21.477 10.9908C21.2558 11.3847 20.1273 13.413 19.111 15.5812C16.7307 13.8214 13.8117 12.085 13.6775 12.0053C13.1327 11.8125 12.8077 12.0001 12.7023 12.5683C12.7409 15.8166 13.0433 23.338 14.8065 24.0326H10.6515V16.6475C10.6515 16.2908 10.3624 16.0017 10.0058 16.0017H5.97154V14.5556C7.49418 14.2543 8.64583 12.9084 8.64583 11.2986C8.64583 9.70131 6.32277 6.25728 5.85707 5.58302C5.50292 5.21142 5.14869 5.21142 4.79454 5.58302C4.32884 6.2572 2.00587 9.70123 2.00587 11.2986C2.00587 12.9084 3.15752 14.2542 4.68016 14.5555V16.0016H0.645734C0.289094 16.0016 0 16.2907 0 16.6474V38.0497C0 38.4063 0.289094 38.6954 0.645734 38.6954H11.1991C11.5558 38.6954 11.8449 38.4063 11.8449 38.0497C11.8449 37.6931 11.5558 37.404 11.1991 37.404H1.29138V36.0213H42.7085V37.404H14.0135C13.6568 37.404 13.3678 37.6931 13.3678 38.0497C13.3678 38.4063 13.6568 38.6954 14.0135 38.6954H43.3543C43.7109 38.6954 44 38.4063 44 38.0497V24.0715C44 23.7149 43.7109 23.4258 43.3543 23.4258C42.9976 23.4258 42.7085 23.7149 42.7085 24.0715V34.7299H36.4552C37.8815 33.5971 38.731 31.8524 38.731 30.0266C38.731 27.3867 37.0154 25.14 34.6406 24.3426V17.2933H42.7084V21.2571C42.7086 21.6138 42.9977 21.9028 43.3543 21.9028ZM30.2295 13.7275C30.1445 16.4421 29.8555 21.1043 29.1372 22.3487C28.3627 23.69 26.7982 24.2972 25.3675 23.9224C26.1898 23.0821 26.6975 21.9326 26.6975 20.6668C26.6975 19.8163 26.2026 18.3876 25.5553 16.8827C27.1225 15.6934 29.0709 14.4465 30.2295 13.7275ZM22.04 12.6512C23.0165 14.3478 25.406 19.943 25.406 20.6667C25.406 22.3019 24.2339 23.6685 22.6857 23.9705C22.2894 24.0484 21.8619 24.0551 21.3943 23.9705C19.8461 23.6685 18.674 22.3019 18.674 20.6667C18.674 19.9273 20.9208 14.5487 22.04 12.6512ZM14.0202 13.7275C15.1473 14.4272 17.0224 15.6266 18.5665 16.7862C17.8989 18.3263 17.3827 19.7981 17.3827 20.6667C17.3827 21.9496 17.9041 23.1131 18.7462 23.9563C18.2222 24.0714 17.6759 24.0567 17.1567 23.9174C16.2882 23.6845 15.5622 23.1275 15.1125 22.3485C14.3936 21.1042 14.1049 16.442 14.0202 13.7275ZM3.29734 11.2989C3.29734 10.5595 4.35677 8.62795 5.32598 7.11683C6.29518 8.62752 7.35445 10.5586 7.35445 11.2989C7.35445 12.1918 6.77454 12.9518 5.97154 13.2221V11.3038C5.97154 10.9471 5.68245 10.6581 5.3258 10.6581C4.96916 10.6581 4.68007 10.9471 4.68007 11.3038V13.2221C3.87716 12.9518 3.29734 12.1918 3.29734 11.2989ZM5.62891 34.7299H1.29138V17.2934H9.36014V24.0379C7.14209 24.1454 5.34901 26.0299 5.34901 28.2541C5.34901 29.5043 5.88887 30.6288 6.75271 31.4022C5.64412 31.9161 5.05802 33.6518 5.62891 34.7299ZM37.4397 30.0266C37.4397 32.5927 35.3035 34.7299 32.7372 34.7299H7.76909C7.14673 34.7299 6.64039 34.2232 6.64039 33.6004C6.70502 32.9123 7.08125 32.5358 7.76909 32.4708L32.3042 32.4665C33.7772 32.3283 34.5825 31.5228 34.72 30.0499C34.72 28.7207 33.6382 27.6367 32.3082 27.6333L23.611 27.6143H23.6095C23.2536 27.6143 22.9646 27.9024 22.9639 28.2586C22.9631 28.6152 23.2515 28.9049 23.6082 28.9057L32.3051 28.9247C32.9245 28.9263 33.4286 29.4311 33.4286 30.0499C33.3648 30.7359 32.9899 31.111 32.304 31.1751L9.42339 31.1794C7.86182 31.1029 6.64048 29.8206 6.64048 28.254C6.64048 26.6556 7.97079 25.3242 9.5694 25.3242H32.7373C35.3302 25.3242 37.4397 27.4337 37.4397 30.0266ZM38.6746 10.6613C38.318 10.6613 38.0289 10.9504 38.0289 11.3071V13.2221C37.226 12.9518 36.6461 12.1918 36.6461 11.2989C36.6461 10.5595 37.7055 8.62795 38.6747 7.11683C39.6439 8.62752 40.7032 10.5586 40.7032 11.2989C40.7032 12.1918 40.1233 12.9518 39.3203 13.2221V11.3071C39.3204 10.9504 39.0313 10.6613 38.6746 10.6613Z" fill="black"/>
<path d="M20.7976 27.6083L10.0075 27.5841H10.006C9.65013 27.5841 9.36113 27.8723 9.36035 28.2284C9.35958 28.5849 9.64799 28.8747 10.0046 28.8755L20.7948 28.8996H20.7962C21.1521 28.8996 21.4411 28.6115 21.4419 28.2554C21.4427 27.8988 21.1542 27.6091 20.7976 27.6083Z" fill="black"/>
</svg>
