<svg width="42" height="39" viewBox="0 0 42 39" fill="none" xmlns="http://www.w3.org/2000/svg">
<path d="M8.05713 21.1536L10.2528 23.348" stroke="black" stroke-width="2.632" stroke-miterlimit="10" stroke-linecap="square"/>
<path d="M10.2528 21.1536L8.05713 23.348" stroke="black" stroke-width="2.632" stroke-miterlimit="10" stroke-linecap="square"/>
<path d="M15.9233 21.1536L18.119 23.348" stroke="black" stroke-width="2.632" stroke-miterlimit="10" stroke-linecap="square"/>
<path d="M18.119 21.1536L15.9233 23.348" stroke="black" stroke-width="2.632" stroke-miterlimit="10" stroke-linecap="square"/>
<path d="M23.7896 21.1536L25.9852 23.348" stroke="black" stroke-width="2.632" stroke-miterlimit="10" stroke-linecap="square"/>
<path d="M25.9852 21.1536L23.7896 23.348" stroke="black" stroke-width="2.632" stroke-miterlimit="10" stroke-linecap="square"/>
<path d="M37.4682 4.86462H40.3404V37.4426H1.96191V4.86462H6.78998" stroke="black" stroke-width="2.6322" stroke-miterlimit="10" stroke-linecap="square"/>
<path d="M13.0449 1.4408H8.1123V8.24529H13.0449V1.4408Z" stroke="black" stroke-width="2.6322" stroke-miterlimit="10" stroke-linecap="square"/>
<path d="M34.1899 1.4408H29.2573V8.24529H34.1899V1.4408Z" stroke="black" stroke-width="2.6322" stroke-miterlimit="10" stroke-linecap="square"/>
<path d="M1.96191 12.6218H36.6009" stroke="black" stroke-width="2.6322" stroke-miterlimit="10" stroke-linecap="square"/>
<path d="M7.71875 17.3118H10.591" stroke="black" stroke-width="2.6322" stroke-miterlimit="10" stroke-linecap="square"/>
<path d="M15.585 17.3118H18.4572" stroke="black" stroke-width="2.6322" stroke-miterlimit="10" stroke-linecap="square"/>
<path d="M23.4512 17.3118H26.3234" stroke="black" stroke-width="2.6322" stroke-miterlimit="10" stroke-linecap="square"/>
<path d="M31.3237 17.3118H34.1898" stroke="black" stroke-width="2.6322" stroke-miterlimit="10" stroke-linecap="square"/>
<path d="M31.3237 22.4812H34.1898" stroke="black" stroke-width="2.6322" stroke-miterlimit="10" stroke-linecap="square"/>
<path d="M7.71875 27.6569H10.591" stroke="black" stroke-width="2.6322" stroke-miterlimit="10" stroke-linecap="square"/>
<path d="M15.585 27.6569H18.4572" stroke="black" stroke-width="2.6322" stroke-miterlimit="10" stroke-linecap="square"/>
<path d="M23.4512 27.6569H26.3234" stroke="black" stroke-width="2.6322" stroke-miterlimit="10" stroke-linecap="square"/>
<path d="M31.3237 27.6569H34.1898" stroke="black" stroke-width="2.6322" stroke-miterlimit="10" stroke-linecap="square"/>
<path d="M7.71875 32.8324H10.591" stroke="black" stroke-width="2.6322" stroke-miterlimit="10" stroke-linecap="square"/>
<path d="M15.585 32.8324H18.4572" stroke="black" stroke-width="2.6322" stroke-miterlimit="10" stroke-linecap="square"/>
<path d="M23.4512 32.8324H26.3234" stroke="black" stroke-width="2.6322" stroke-miterlimit="10" stroke-linecap="square"/>
<path d="M31.3237 32.8324H34.1898" stroke="black" stroke-width="2.6322" stroke-miterlimit="10" stroke-linecap="square"/>
<path d="M16.3232 4.86462H29.2575" stroke="black" stroke-width="2.6322" stroke-miterlimit="10" stroke-linecap="square"/>
</svg>
